<?xml version="1.0" standalone="no"?>
<!DOCTYPE svg PUBLIC "-//W3C//DTD SVG 20010904//EN"
 "http://www.w3.org/TR/2001/REC-SVG-20010904/DTD/svg10.dtd">
<svg version="1.0" xmlns="http://www.w3.org/2000/svg"
 width="460.000000pt" height="460.000000pt" viewBox="0 0 460.000000 460.000000"
 preserveAspectRatio="xMidYMid meet">

<g transform="translate(0.000000,460.000000) scale(0.100000,-0.100000)"
fill="#000000" stroke="none">
<path d="M2491 3996 c-43 -105 -134 -179 -281 -229 -121 -41 -210 -92 -315
-181 -222 -187 -316 -316 -383 -526 -35 -111 -52 -218 -52 -335 l0 -83 -36
-27 c-19 -15 -37 -25 -40 -22 -3 2 0 24 5 48 5 24 8 45 6 47 -1 2 -20 -12 -40
-30 l-38 -32 8 34 c4 19 9 46 12 60 5 23 2 22 -37 -15 l-42 -40 4 68 c2 37 2
67 1 67 -1 0 -18 -20 -36 -45 -37 -47 -47 -44 -47 13 0 51 -15 55 -40 10 l-25
-43 -10 73 -10 72 -34 -50 c-39 -57 -51 -62 -52 -22 0 15 -4 36 -8 46 -6 17
-11 12 -31 -28 l-23 -48 -22 52 c-24 58 -26 57 -45 -13 -7 -26 -16 -49 -20
-52 -4 -2 -20 14 -36 35 -16 22 -33 40 -38 40 -5 0 -1 -10 8 -22 9 -13 26 -38
39 -55 12 -18 25 -33 29 -33 4 0 15 26 24 57 l17 58 21 -49 21 -48 22 43 c14
27 24 38 26 29 3 -8 9 -31 14 -50 l9 -34 33 54 c19 30 35 51 37 45 1 -5 6 -41
9 -79 l7 -69 26 46 c29 54 42 59 43 20 1 -16 4 -39 8 -52 6 -24 7 -23 40 20
l33 44 -7 -62 c-4 -35 -3 -63 1 -63 4 0 24 15 43 33 19 18 31 25 28 15 -3 -9
-9 -34 -13 -55 -8 -42 -6 -41 54 11 24 21 26 19 13 -16 -4 -13 -11 -40 -15
-62 l-7 -38 31 22 c17 12 33 21 35 19 2 -2 -2 -25 -7 -51 -6 -27 -8 -51 -4
-55 4 -4 27 0 52 9 49 17 51 14 27 -37 -9 -19 -14 -38 -10 -41 3 -4 25 -2 47
4 l40 10 -22 -37 c-12 -20 -30 -48 -40 -63 -24 -35 -23 -39 7 -33 14 3 37 7
51 10 26 6 26 6 -10 -36 -20 -24 -36 -46 -36 -51 0 -4 24 -8 53 -9 l52 0 -29
-22 c-16 -12 -43 -34 -60 -48 l-30 -26 42 -24 c23 -13 42 -27 42 -30 0 -4 -21
-12 -47 -19 -68 -18 -69 -24 -14 -44 77 -27 81 -41 15 -55 -30 -7 -53 -15 -50
-18 3 -3 27 -15 53 -28 l48 -22 -57 -13 c-32 -7 -58 -14 -58 -16 0 -1 30 -31
66 -66 36 -34 89 -93 117 -130 29 -38 56 -68 61 -68 4 0 3 7 -4 15 -10 12 -2
24 46 72 33 32 87 77 121 100 55 37 66 41 89 32 49 -18 35 -2 -27 30 -83 44
-249 153 -276 182 -12 13 -25 40 -30 59 -9 33 -11 34 -49 32 -70 -4 -73 11
-11 57 71 52 76 61 35 61 -18 0 -43 3 -56 6 -23 7 -22 8 19 50 24 24 41 46 38
48 -2 3 -24 0 -48 -5 -24 -5 -46 -7 -49 -4 -3 2 11 29 31 60 21 30 37 58 37
61 0 3 -20 3 -45 0 -25 -4 -45 -5 -45 -3 0 3 7 21 15 40 22 54 20 57 -37 37
-29 -10 -54 -15 -56 -12 -1 4 10 41 24 82 18 52 29 110 35 189 10 129 37 250
81 361 57 145 93 197 230 333 71 70 147 139 170 155 106 71 151 95 248 132
108 42 142 58 197 95 38 25 90 88 108 129 l13 30 17 -33 c24 -48 92 -119 141
-147 23 -14 100 -43 171 -65 143 -45 246 -93 313 -147 192 -156 307 -350 365
-615 l6 -28 59 48 c180 144 256 185 360 191 66 3 79 1 110 -20 77 -52 103
-190 59 -316 -21 -58 -35 -78 -111 -154 -83 -83 -92 -90 -260 -171 -95 -46
-187 -89 -204 -96 -26 -10 -38 -28 -73 -106 -64 -141 -214 -309 -364 -407 -89
-59 -79 -62 20 -7 81 45 257 204 299 271 29 46 96 81 182 98 55 11 67 18 98
55 19 24 51 51 70 60 50 23 79 4 87 -59 14 -103 -38 -246 -138 -375 -30 -39
-55 -74 -55 -77 0 -4 17 -27 38 -53 96 -116 145 -264 144 -436 0 -57 3 -83 8
-70 5 11 9 30 9 43 1 12 4 22 7 22 3 0 24 -19 46 -42 111 -117 124 -280 27
-348 -23 -17 -51 -24 -112 -29 -122 -9 -122 -9 -90 47 30 54 27 51 -47 -38
-210 -254 -454 -382 -775 -408 l-90 -8 73 -8 c69 -7 73 -9 67 -29 -25 -85 -98
-177 -160 -203 -128 -53 -227 34 -250 219 -6 43 -4 57 5 57 7 0 -16 14 -51 32
-117 57 -188 126 -292 282 -73 108 -118 248 -132 403 -4 46 -10 83 -14 83 -4
0 -43 -9 -86 -20 -86 -22 -208 -26 -269 -9 -52 14 -88 52 -84 87 2 15 8 26 16
24 18 -3 15 5 -17 52 -32 47 -164 181 -191 196 -16 9 -17 7 -7 -25 13 -43 5
-52 -25 -31 -38 27 -50 20 -29 -17 11 -17 22 -42 26 -55 l7 -23 -41 25 c-22
14 -43 26 -46 26 -3 0 -5 -25 -5 -55 0 -30 -4 -55 -8 -55 -5 0 -19 11 -32 25
-34 36 -42 31 -34 -22 l7 -48 -37 39 -36 40 -1 -50 c0 -42 -2 -46 -12 -30 -7
10 -20 28 -29 40 -16 20 -17 19 -23 -41 l-8 -63 -36 45 -36 45 -11 -47 -11
-48 -22 47 c-13 27 -27 45 -32 43 -5 -3 -14 -24 -20 -46 -20 -64 -35 -67 -49
-9 -7 27 -16 52 -20 55 -5 3 -21 -15 -37 -40 -15 -24 -31 -44 -35 -45 -5 0 -8
33 -8 73 l-1 72 -23 -45 c-13 -25 -28 -45 -32 -45 -5 0 -11 19 -14 42 l-5 43
-48 -41 -47 -41 0 53 c0 49 -1 51 -17 37 -10 -9 -29 -21 -42 -28 -23 -12 -24
-11 -18 18 3 16 9 41 13 56 l6 26 -46 -26 c-25 -14 -46 -23 -46 -20 0 4 11 29
25 56 14 28 21 50 16 50 -5 0 -30 -9 -55 -20 -25 -10 -46 -17 -46 -14 0 3 16
28 35 57 40 60 43 72 14 57 -11 -7 -43 -13 -70 -14 -27 -1 -55 -8 -62 -16 -12
-13 8 -12 92 6 33 7 33 6 21 -17 -7 -13 -26 -41 -42 -61 -35 -44 -24 -48 46
-18 25 10 46 16 46 12 0 -4 -13 -31 -29 -59 -16 -29 -28 -53 -26 -53 2 0 25
11 52 24 26 14 49 22 51 18 1 -5 -4 -30 -12 -57 -9 -27 -13 -51 -11 -54 3 -2
15 5 28 16 12 11 32 26 44 32 22 11 23 11 16 -34 -7 -55 1 -57 59 -9 l43 37 3
-29 c1 -16 5 -40 8 -53 5 -23 7 -22 35 20 l29 44 0 -70 1 -70 22 27 c12 15 31
39 41 54 l20 28 13 -30 c6 -16 12 -40 13 -54 1 -55 17 -52 40 7 13 32 27 62
31 67 4 4 20 -18 35 -50 l29 -59 8 58 9 57 39 -42 38 -43 1 40 c0 22 4 46 9
54 9 14 17 5 55 -64 17 -30 17 -29 11 40 l-6 70 36 -42 c20 -24 40 -43 44 -43
5 0 5 19 0 42 -4 24 -8 47 -9 51 0 5 19 -6 42 -24 l41 -33 -7 67 -7 68 51 -26
c53 -27 61 -21 35 25 -24 42 -19 53 16 35 l30 -16 -7 38 -7 38 24 -20 c36 -30
119 -117 136 -142 11 -17 12 -30 4 -58 -13 -49 9 -109 47 -124 81 -31 170 -39
245 -22 l37 9 0 -49 c0 -84 37 -146 115 -190 37 -21 55 -38 60 -57 20 -78 105
-212 199 -310 44 -47 129 -102 187 -122 l36 -13 5 -87 c4 -71 11 -97 34 -139
95 -175 317 -113 397 110 l23 64 59 7 c232 29 471 167 609 350 l27 36 107 -1
c119 -1 150 8 195 62 80 95 52 236 -68 350 -52 49 -52 50 -59 124 -4 42 -13
101 -21 132 l-15 57 41 40 c84 82 112 201 66 283 -21 38 -34 46 -114 70 -1 0
9 25 23 54 44 91 46 249 3 292 -26 26 -57 24 -103 -7 -36 -24 -40 -25 -48 -9
-6 9 -27 25 -48 34 l-38 17 116 49 c204 86 333 189 395 315 30 60 32 72 32
166 0 94 -2 104 -30 150 -34 55 -97 94 -153 94 -56 0 -149 -29 -205 -62 -51
-32 -210 -159 -222 -178 -12 -20 -25 -9 -25 20 0 40 -55 211 -91 283 -124 245
-321 412 -566 478 -126 34 -215 81 -266 142 -24 28 -52 73 -62 100 -10 26 -21
47 -25 47 -3 0 -16 -24 -29 -54z m1174 -1586 c64 -40 49 -81 -35 -99 -27 -6
-72 -19 -101 -30 -29 -11 -54 -20 -55 -18 -1 1 13 35 30 74 22 53 38 75 56 82
40 15 70 12 105 -9z m-2055 -350 c0 -5 -5 -10 -11 -10 -5 0 -7 5 -4 10 3 6 8
10 11 10 2 0 4 -4 4 -10z m2285 -42 c77 -61 72 -192 -12 -275 -43 -43 -63 -53
-63 -31 0 17 -47 86 -89 130 l-35 38 22 27 c12 16 39 51 59 80 43 60 72 67
118 31z m-2265 -17 c15 -37 37 -56 131 -119 l75 -50 -5 -45 c-5 -40 -14 -52
-78 -111 l-72 -67 -28 38 c-15 21 -56 67 -90 103 l-63 65 50 14 c28 8 50 18
50 23 0 4 -16 16 -35 25 -19 9 -35 20 -35 24 0 3 21 12 46 18 54 14 51 21 -21
56 l-48 22 44 16 c61 21 65 21 79 -12z m278 -201 c10 -5 4 -13 -22 -28 -39
-23 -52 -16 -42 24 7 25 23 26 64 4z m176 -518 c4 -54 11 -115 16 -135 9 -42
9 -42 -29 -22 -61 31 -101 105 -101 187 0 35 2 37 48 51 26 8 50 15 53 16 4 1
10 -43 13 -97z"/>
<path d="M2980 3394 c-44 -107 -29 -210 34 -244 53 -28 116 25 116 98 0 28
-59 186 -67 179 -1 -2 6 -32 17 -68 26 -84 26 -139 0 -167 -28 -30 -43 -28
-74 9 -31 37 -35 101 -10 186 21 73 12 77 -16 7z"/>
<path d="M2461 3037 c-12 -31 -26 -127 -18 -127 8 0 40 140 33 147 -3 3 -10
-6 -15 -20z"/>
<path d="M2274 3008 c3 -13 6 -44 6 -70 0 -27 5 -48 10 -48 6 0 10 15 10 33 0
52 -12 107 -22 107 -6 0 -8 -10 -4 -22z"/>
<path d="M2863 2959 c-67 -8 -226 -49 -220 -55 6 -7 449 47 472 56 26 11 -168
10 -252 -1z"/>
<path d="M758 2818 c4 -59 4 -61 -12 -45 -10 9 -20 17 -22 17 -8 0 14 -36 30
-49 12 -10 15 -3 18 51 3 38 0 68 -7 76 -9 9 -10 -3 -7 -50z"/>
<path d="M1835 2850 c-66 -10 -173 -41 -158 -47 6 -2 60 3 120 12 59 9 153 19
208 22 66 5 91 9 75 14 -32 9 -180 9 -245 -1z"/>
<path d="M683 2820 c3 -14 8 -43 12 -65 l6 -40 -24 26 c-13 15 -36 34 -50 44
-26 17 -27 17 -27 -1 1 -11 5 -39 10 -64 4 -25 7 -46 5 -48 -1 -1 -26 12 -54
29 -28 18 -54 30 -57 26 -3 -3 2 -20 11 -37 l17 -33 -47 7 c-46 7 -47 7 -40
-16 4 -13 14 -32 21 -43 22 -30 18 -34 -40 -37 l-54 -3 24 -29 c14 -15 28 -26
31 -22 3 3 -2 15 -13 27 l-19 21 53 -3 c28 -2 52 -3 52 -2 0 1 -9 22 -20 47
-19 45 -19 46 0 46 10 0 31 -5 45 -10 21 -8 26 -7 23 2 -14 35 -19 58 -14 58
3 0 27 -13 53 -29 26 -17 48 -29 50 -28 1 1 -5 31 -12 67 -7 36 -12 66 -11 68
2 1 26 -22 54 -52 l50 -55 -3 70 c-2 52 -7 75 -20 87 -16 16 -17 15 -12 -8z"/>
<path d="M2263 2594 c-123 -27 -196 -80 -249 -184 -28 -53 -29 -60 -28 -190 0
-126 2 -141 32 -223 41 -113 84 -196 113 -223 25 -23 158 -75 187 -73 9 0 -21
14 -67 30 -47 16 -96 39 -109 51 -28 26 -63 99 -97 204 -23 72 -23 73 -6 131
32 106 80 175 160 234 99 71 302 125 444 117 72 -4 80 -7 114 -39 48 -46 115
-150 165 -256 32 -70 42 -103 46 -160 9 -135 -9 -164 -141 -243 -42 -24 -75
-46 -73 -47 5 -5 126 65 165 94 63 49 86 148 60 261 -21 90 -124 284 -189 355
-63 68 -163 138 -232 163 -51 18 -210 17 -295 -2z m297 -37 c19 -7 51 -22 70
-32 l35 -20 -100 -6 c-169 -10 -341 -73 -424 -155 -19 -18 -39 -31 -45 -27 -6
3 -8 3 -4 -2 4 -4 -6 -30 -22 -59 -15 -28 -34 -71 -41 -95 -12 -41 -14 -43
-20 -20 -18 64 -4 174 32 254 51 111 121 150 324 179 47 7 156 -3 195 -17z"/>
<path d="M383 2495 c-66 -13 -71 -19 -34 -41 17 -10 31 -21 31 -25 0 -4 -19
-10 -42 -14 l-43 -8 39 -33 38 -33 -39 -10 c-21 -6 -44 -11 -52 -11 -8 0 3
-13 24 -30 21 -16 42 -30 46 -30 21 0 6 -21 -27 -38 l-36 -18 27 -18 27 -17
-45 -29 c-65 -41 -65 -48 -2 -55 60 -8 62 -16 7 -44 l-36 -19 57 -12 c31 -7
54 -17 51 -21 -2 -5 -27 -21 -55 -36 l-49 -28 62 -5 63 -5 -45 -42 c-44 -42
-44 -43 -19 -43 15 0 41 -3 58 -6 l32 -7 -27 -28 c-39 -40 -19 -36 27 6 l38
34 -61 7 -60 7 48 43 49 43 -60 3 -60 3 52 30 c28 16 50 33 47 37 -2 4 -25 10
-49 14 -25 3 -47 9 -49 13 -3 4 16 18 42 31 l47 25 -35 3 c-19 1 -50 5 -69 8
l-33 5 33 25 c18 13 41 26 51 30 15 4 17 9 7 20 -6 8 -18 14 -25 14 -26 0 -14
20 21 34 19 8 35 17 35 20 0 3 -18 17 -40 31 -23 14 -38 30 -35 34 3 5 23 12
45 16 22 4 40 10 40 13 0 4 -17 18 -38 32 l-37 24 49 11 50 11 -32 23 c-44 31
-40 41 13 41 25 0 45 4 45 9 0 16 -13 17 -67 6z"/>
<path d="M2348 1693 c7 -3 16 -2 19 1 4 3 -2 6 -13 5 -11 0 -14 -3 -6 -6z"/>
</g>
</svg>
